# AST/ASF file generated using VICON BodyLanguage
# -----------------------------------------------
:version 1.10
:name VICON
:units
  mass 1.0
  length 0.45
  angle deg
:documentation
   .ast/.asf automatically generated from VICON data using
   VICON BodyBuilder and BodyLanguage model FoxedUp or BRILLIANT.MOD
:root
   order TX TY TZ RX RY RZ
   axis XYZ
   position 0 0 0  
   orientation 0 0 0 
:bonedata
  begin
     id 1 
     name lhipjoint
     direction 0.710188 -0.616876 0.339259 
     length 2.5669 
     axis 0 0 0  XYZ
  end
  begin
     id 2 
     name lfemur
     direction 0.34202 -0.939693 0  
     length 7.12796  
     axis 0 0 20  XYZ
    dof rx ry rz
    limits (-160.0 20.0)
           (-70.0 70.0)
           (-60.0 70.0)
  end
  begin
     id 3 
     name ltibia
     direction 0.34202 -0.939693 0   
     length 7.58108   
     axis 0 0 20   XYZ
    dof rx
    limits (-10.0 170.0)
  end
  begin
     id 4 
     name lfoot
     direction 0.0669471 -0.183936 0.980656   
     length 2.17365   
     axis -90 7.62852e-016 20   XYZ
    dof rx rz
    limits (-45.0 90.0)
           (-70.0 20.0)
  end
  begin
     id 5 
     name ltoes
     direction 1.53508e-011 -4.21705e-011 1   
     length 1.09427   
     axis -90 7.62852e-016 20   XYZ
    dof rx
    limits (-90.0 20.0)
  end
  begin
     id 6 
     name rhipjoint
     direction -0.700191 -0.625589 0.34405   
     length 2.53115  
     axis 0 0 0  XYZ 
  end
  begin
     id 7 
     name rfemur
     direction -0.34202 -0.939693 0   
     length 7.33006   
     axis 0 0 -20   XYZ
    dof rx ry rz
    limits (-160.0 20.0)
           (-70.0 70.0)
           (-70.0 60.0)
  end
  begin
     id 8 
     name rtibia
     direction -0.34202 -0.939693 0   
     length 7.64926   
     axis 0 0 -20   XYZ
    dof rx
    limits (-10.0 170.0)
 end
 begin
     id 9 
     name rfoot
     direction -0.0688927 -0.189281 0.979503   
     length 2.20493  
     axis -90 -7.62852e-016 -20   XYZ
    dof rx rz
    limits (-45.0 90.0)
           (-20.0 70.0)
  end
  begin
     id 10 
     name rtoes
     direction -1.53567e-011 -4.21933e-011 1   
     length 1.10919   
     axis -90 -7.62852e-016 -20   XYZ
    dof rx
    limits (-90.0 20.0)
  end
  begin
     id 11 
     name lowerback
     direction -0.0167868 0.989873 -0.140959   
     length 2.14596   
     axis 0 0 0   XYZ
    dof rx ry rz
    limits (-20.0 45.0)
           (-30.0 30.0)
           (-30.0 30.0)
  end
  begin
     id 12 
     name upperback
     direction 0.0129109 0.998033 0.0613525   
     length 2.10457   
     axis 0 0 0   XYZ
    dof rx ry rz
    limits (-20.0 45.0)
           (-30.0 30.0)
           (-30.0 30.0)
  end
  begin
     id 13 
     name thorax
     direction 0.0177047 0.991119 0.131797   
     length 2.17652   
     axis 0 0 0   XYZ
    dof rx ry rz
    limits (-20.0 45.0)
           (-30.0 30.0)
           (-30.0 30.0)
  end
  begin
     id 14 
     name lowerneck
     direction -0.0336893 0.997548 0.0613464   
     length 1.8912   
     axis 0 0 0   XYZ
    dof rx ry rz
    limits (-20.0 45.0)
           (-30.0 30.0)
           (-30.0 30.0)
  end
  begin
     id 15 
     name upperneck
     direction 0.0435909 0.997179 -0.0611028   
     length 1.8829   
     axis 0 0 0   XYZ
    dof rx ry rz
    limits (-20.0 45.0)
           (-30.0 30.0)
           (-30.0 30.0)
  end
  begin
     id 16
     name head
     direction 0.0175076 0.999444 -0.0283782  
     length 1.93197  
     axis 0 0 0   XYZ
    dof rx ry rz
    limits (-20.0 45.0)
           (-30.0 30.0)
           (-30.0 30.0)
  end
  begin
     id 17 
     name lclavicle
     direction 0.919164 0.389875 0.0559876  
     length 3.60004  
     axis 0 0 0   XYZ
    dof ry rz
    limits (-20.0 10.0)
           (0.0 20.0)
  end
  begin
     id 18 
     name lhumerus
     direction 1 -4.48958e-011 6.89191e-027   
     length 5.43301   
     axis 180 -30 -90   XYZ
    dof rx ry rz
    limits (-60.0 90.0)
           (-90.0 90.0)
           (-90.0 90.0)
  end
  begin
     id 19
     name lradius
     direction 1 -4.4897e-011 3.24727e-027   
     length 3.15936   
     axis 180 -30 -90   XYZ
    dof rx
    limits (-10.0 170.0)
  end
  begin
     id 20
     name lwrist
     direction 1 -4.4897e-011 9.00228e-027   
     length 1.57968   
     axis -6.29373e-015 90 90   XYZ
    dof ry
    limits (-180.0 0.0)
 end
  begin
     id 21 
     name lhand
     direction 1 -4.48968e-011 1.80042e-026   
     length 0.712827   
     axis -1.14882e-014 90 90   XYZ
    dof rx rz
    limits (-90.0 90.0)
           (-45.0 45.0)
  end
  begin
     id 22 
     name lfingers
     direction 1 -4.49019e-011 3.60267e-026   
     length 0.574699   
     axis -2.29769e-014 90 90   XYZ
    dof rx
    limits (0.0 90.0)
  end
  begin
     id 23
     name lthumb
     direction 0.707107 -6.3498e-011 0.707107   
     length 0.825157   
     axis -90 45 5.37419e-014   XYZ
    dof rx rz
    limits (-45.0 45.0)
           (-45.0 45.0)
  end
  begin
     id 24 
     name rclavicle
     direction -0.890334 0.455305 -0.00132111   
     length 3.51494  
     axis 0 0 0   XYZ 
    dof ry rz
    limits (-10.0 20.0)
           (-20.0 0.0)
  end
  begin
     id 25 
     name rhumerus
     direction -1 -4.48967e-011 5.07175e-028  
     length 5.34194   
     axis 180 30 90   XYZ
    dof rx ry rz
    limits (-90.0 60.0)
           (-90.0 90.0)
           (-90.0 90.0)
  end
  begin
     id 26 
     name rradius
     direction -1 -4.48955e-011 3.30467e-027   
     length 3.19351   
     axis 180 30 90   XYZ
    dof rx
    limits (-10.0 170.0)
  end
  begin
     id 27 
     name rwrist
     direction -1 -4.48968e-011 9.00208e-027   
     length 1.59676   
     axis -6.29373e-015 -90 -90   XYZ
    dof ry
    limits (-180.0 0.0)
  end
  begin
     id 28
     name rhand
     direction -1 -4.49e-011 1.80099e-026   
     length 0.743862   
     axis -1.14882e-014 -90 -90   XYZ
    dof rx rz
    limits (-90.0 90.0)
           (-45.0 45.0)
  end
  begin
     id 29
     name rfingers
     direction -1 -4.49009e-011 3.6023e-026   
     length 0.599721   
     axis -2.29769e-014 -90 -90   XYZ
    dof rx
    limits (0.0 90.0)
  end
  begin
     id 30
     name rthumb
     direction -0.707107 -6.35025e-011 0.707107   
     length 0.861083   
     axis -90 -45 -5.37419e-014   XYZ
    dof rx rz
    limits (-45.0 45.0)
           (-45.0 45.0)
  end
:hierarchy
  begin
    root lhipjoint rhipjoint lowerback
    lhipjoint lfemur
    lfemur ltibia
    ltibia lfoot
    lfoot ltoes
    rhipjoint rfemur
    rfemur rtibia
    rtibia rfoot
    rfoot rtoes
    lowerback upperback
    upperback thorax
    thorax lowerneck lclavicle rclavicle
    lowerneck upperneck
    upperneck head
    lclavicle lhumerus
    lhumerus lradius
    lradius lwrist
    lwrist lhand lthumb
    lhand lfingers
    rclavicle rhumerus
    rhumerus rradius
    rradius rwrist
    rwrist rhand rthumb
    rhand rfingers
  end

#!OML:ASF H:\Martial Arts Walks\Project 1\Capture day 1\Session 1\male.ASF
:FULLY-SPECIFIED
:DEGREES
188
root -1.60285 14.0723 -38.3064 5.1848 44.0337 3.02786
lowerback 12.9691 0.0336829 -9.04356
upperback -3.57423 -1.51044 0.077316
thorax -11.0394 -0.0947819 5.53572
lowerneck 4.42255 -14.3764 -15.0172
upperneck 2.84381 -20.3771 15.4226
head 3.26662 -10.286 6.17202
rclavicle 1.72756e-014 1.98785e-015
rhumerus -4.2181 -14.7468 -67.7428
rradius 88.626
rwrist 17.3243
rhand -43.132 -34.1632
rfingers 7.12502
rthumb -15.9855 -63.5237
lclavicle 1.72756e-014 1.98785e-015
lhumerus -52.1857 -42.7652 113.276
lradius 105.5
lwrist 78.9549
lhand 5.99072 38.0782
lfingers 7.12502
lthumb 31.3145 65.4193
rfemur -63.0801 -34.9771 13.792
rtibia 67.7988
rfoot -5.39865 1.26455
rtoes -5.82533
lfemur -25.6936 29.8267 -13.1519
ltibia 76.8172
lfoot -35.7842 22.024
ltoes -17.8988
189
root -1.61584 14.0884 -38.2757 5.41377 43.8492 3.15233
lowerback 13.0413 0.0512589 -9.08763
upperback -3.54116 -1.50208 0.0617821
thorax -11.0462 -0.0890937 5.5433
lowerneck 4.38776 -14.3724 -14.9779
upperneck 2.58042 -20.3467 15.5379
head 3.19809 -10.2714 6.20964
rclavicle -3.56694e-014 -3.08116e-014
rhumerus -4.11686 -14.5871 -67.6169
rradius 88.3999
rwrist 17.2605
rhand -43.1099 -34.2223
rfingers 7.12502
rthumb -15.9642 -63.5845
lclavicle -3.56694e-014 -3.08116e-014
lhumerus -52.0967 -42.8063 113.19
lradius 105.143
lwrist 78.3412
lhand 5.76891 38.0373
lfingers 7.12502
lthumb 31.1031 65.4191
rfemur -63.3268 -34.8468 13.995
rtibia 67.9291
rfoot -5.49568 0.515792
rtoes -5.65823
lfemur -25.6329 29.8672 -13.1886
ltibia 76.5184
lfoot -35.5934 22.0559
ltoes -17.9724
190
root -1.62887 14.105 -38.2434 5.65139 43.6498 3.28727
lowerback 13.1152 0.0679724 -9.13102
upperback -3.50659 -1.4951 0.0443591
thorax -11.052 -0.0842877 5.5487
lowerneck 4.35562 -14.3672 -14.936
upperneck 2.30954 -20.3133 15.6504
head 3.12602 -10.2558 6.24698
rclavicle 3.71541e-014 -7.35503e-015
rhumerus -4.00947 -14.4285 -67.4859
rradius 88.134
rwrist 17.2138
rhand -43.0827 -34.2897
rfingers 7.12502
rthumb -15.938 -63.654
lclavicle 3.71541e-014 -7.35503e-015
lhumerus -51.9761 -42.8553 113.105
lradius 104.723
lwrist 77.7198
lhand 5.5572 37.9893
lfingers 7.12502
lthumb 30.9013 65.4095
rfemur -63.5809 -34.7266 14.202
rtibia 68.0753
rfoot -5.58203 -0.315081
rtoes -5.36894
lfemur -25.5543 29.9083 -13.2288
ltibia 76.2003
lfoot -35.3902 22.1006
ltoes -18.0599
191
root -1.64185 14.1221 -38.2094 5.89671 43.4373 3.43079
lowerback 13.1914 0.0822795 -9.17014
upperback -3.47191 -1.49104 0.0256796
thorax -11.0587 -0.0811718 5.55098
lowerneck 4.323 -14.3588 -14.8903
upperneck 2.037 -20.2743 15.7537
head 3.05142 -10.2375 6.28185
rclavicle 8.99873e-014 -5.56597e-015
rhumerus -3.89381 -14.2741 -67.3541
rradius 87.8256
rwrist 17.1873
rhand -43.0546 -34.3627
rfingers 7.12502
rthumb -15.9109 -63.7291
lclavicle 8.99873e-014 -5.56597e-015
lhumerus -51.8152 -42.9063 113.016
lradius 104.231
lwrist 77.0981
lhand 5.37079 37.9316
lfingers 7.12502
lthumb 30.7236 65.3854
rfemur -63.8443 -34.6215 14.4175
rtibia 68.2368
rfoot -5.66749 -1.22779
rtoes -4.98838
lfemur -25.4596 29.9477 -13.273
ltibia 75.8635
lfoot -35.1729 22.1624
ltoes -18.163
192
root -1.65476 14.1397 -38.1737 6.14851 43.2129 3.58
lowerback 13.2699 0.093099 -9.20191
upperback -3.43833 -1.49073 0.00690952
thorax -11.0674 -0.0802056 5.54987
lowerneck 4.28549 -14.346 -14.8398
upperneck 1.76912 -20.2279 15.8426
head 2.97588 -10.2155 6.31222
rclavicle -1.96797e-014 2.38542e-015
rhumerus -3.76815 -14.1268 -67.2246
rradius 87.4722
rwrist 17.1798
rhand -43.0308 -34.4367
rfingers 7.12502
rthumb -15.888 -63.8049
lclavicle -1.96797e-014 2.38542e-015
lhumerus -51.6048 -42.9557 112.92
lradius 103.663
lwrist 76.4843
lhand 5.21676 37.8706
lfingers 7.12502
lthumb 30.5767 65.3518
rfemur -64.1195 -34.5356 14.6478
rtibia 68.4126
rfoot -5.7626 -2.21653
rtoes -4.52437
lfemur -25.3509 29.9844 -13.3204
ltibia 75.5086
lfoot -34.9416 22.2421
ltoes -18.2777
193
root -1.66751 14.1579 -38.1363 6.40595 42.9784 3.73253
lowerback 13.3506 0.0994476 -9.22311
upperback -3.40696 -1.49491 -0.0112861
thorax -11.0792 -0.0818347 5.54448
lowerneck 4.23963 -14.3279 -14.7834
upperneck 1.51016 -20.1726 15.914
head 2.90052 -10.1888 6.33674
rclavicle 4.44905e-014 -6.16232e-015
rhumerus -3.6327 -13.9889 -67.0988
rradius 87.073
rwrist 17.187
rhand -43.0135 -34.5074
rfingers 7.12502
rthumb -15.8714 -63.8769
lclavicle 4.44905e-014 -6.16232e-015
lhumerus -51.3369 -43.0031 112.815
lradius 103.014
lwrist 75.8905
lhand 5.08768 37.8208
lfingers 7.12502
lthumb 30.4536 65.325
rfemur -64.4088 -34.4727 14.8992
rtibia 68.6017
rfoot -5.87584 -3.27223
rtoes -3.95901
lfemur -25.2304 30.0184 -13.3708
ltibia 75.1357
lfoot -34.6956 22.3399
ltoes -18.4005
194
root -1.68007 14.1769 -38.0971 6.66754 42.7355 3.88724
lowerback 13.4343 0.100821 -9.23309
upperback -3.37805 -1.50413 -0.0281253
thorax -11.0948 -0.0862868 5.53546
lowerneck 4.18381 -14.3036 -14.7208
upperneck 1.26112 -20.1073 15.9671
head 2.82567 -10.1567 6.35512
rclavicle -3.94215e-014 -5.56597e-015
rhumerus -3.4892 -13.8607 -66.9761
rradius 86.6291
rwrist 17.1999
rhand -43.0031 -34.5714
rfingers 7.12502
rthumb -15.8614 -63.9417
lclavicle -3.94215e-014 -5.56597e-015
lhumerus -51.0046 -43.0508 112.7
lradius 102.282
lwrist 75.3334
lhand 4.96105 37.8006
lfingers 7.12502
lthumb 30.3328 65.3271
rfemur -64.712 -34.4357 15.1755
rtibia 68.8034
rfoot -6.01243 -4.3859
rtoes -3.25567
lfemur -25.0973 30.0499 -13.4227
ltibia 74.7444
lfoot -34.4361 22.4523
ltoes -18.5253
195
root -1.69241 14.1967 -38.056 6.93174 42.4848 4.04315
lowerback 13.5214 0.0976125 -9.23116
upperback -3.35193 -1.51778 -0.0435836
thorax -11.1148 -0.0932653 5.52235
lowerneck 4.12042 -14.2731 -14.6511
upperneck 1.01909 -20.032 16.0039
head 2.75018 -10.1193 6.36807
rclavicle 2.09842e-014 -7.55382e-015
rhumerus -3.34241 -13.7421 -66.8543
rradius 86.1442
rwrist 17.2057
rhand -42.9954 -34.6295
rfingers 7.12502
rthumb -15.8539 -64.0004
lclavicle 2.09842e-014 -7.55382e-015
lhumerus -50.6046 -43.1048 112.576
lradius 101.47
lwrist 74.8348
lhand 4.80191 37.8348
lfingers 7.12502
lthumb 30.181 65.3891
rfemur -65.0283 -34.4255 15.4794
rtibia 69.017
rfoot -6.17319 -5.55186
rtoes -2.37117
lfemur -24.9501 30.0799 -13.4746
ltibia 74.3337
lfoot -34.1641 22.575
ltoes -18.6449
196
root -1.70452 14.2174 -38.0129 7.196 42.2269 4.19896
lowerback 13.6128 0.0895554 -9.21752
upperback -3.32818 -1.5362 -0.0565458
thorax -11.1394 -0.102882 5.50662
lowerneck 4.05049 -14.2358 -14.5757
upperneck 0.780601 -19.9463 16.0264
head 2.67317 -10.0765 6.37659
rclavicle 2.9445e-014 -5.1684e-015
rhumerus -3.19447 -13.6283 -66.7304
rradius 85.6226
rwrist 17.1891
rhand -42.9816 -34.6836
rfingers 7.12502
rthumb -15.8406 -64.0555
lclavicle 2.9445e-014 -5.1684e-015
lhumerus -50.1319 -43.1689 112.442
lradius 100.581
lwrist 74.4191
lhand 4.56104 37.9476
lfingers 7.12502
lthumb 29.9512 65.5437
rfemur -65.3543 -34.4414 15.8119
rtibia 69.2425
rfoot -6.356 -6.77008
rtoes -1.27497
lfemur -24.7861 30.1083 -13.5241
ltibia 73.9026
lfoot -33.8802 22.7046
ltoes -18.756
